<?xml version="1.0" encoding="UTF-8" standalone="no"?>
<!-- Created with Inkscape (http://www.inkscape.org/) -->

<svg
   xmlns:osb="http://www.openswatchbook.org/uri/2009/osb"
   xmlns:dc="http://purl.org/dc/elements/1.1/"
   xmlns:cc="http://creativecommons.org/ns#"
   xmlns:rdf="http://www.w3.org/1999/02/22-rdf-syntax-ns#"
   xmlns:svg="http://www.w3.org/2000/svg"
   xmlns="http://www.w3.org/2000/svg"
   xmlns:xlink="http://www.w3.org/1999/xlink"
   xmlns:sodipodi="http://sodipodi.sourceforge.net/DTD/sodipodi-0.dtd"
   xmlns:inkscape="http://www.inkscape.org/namespaces/inkscape"
   width="206.89mm"
   height="59.323002mm"
   viewBox="0 0 206.89 59.323002"
   version="1.1"
   id="svg8"
   inkscape:version="0.92.5 (2060ec1f9f, 2020-04-08)"
   sodipodi:docname="jade_logo.svg"
   inkscape:export-filename="/home/elvin/Downloads/jade_logo.png"
   inkscape:export-xdpi="96"
   inkscape:export-ydpi="96">
  <defs
     id="defs2">
    <linearGradient
       inkscape:collect="always"
       id="linearGradient1123">
      <stop
         style="stop-color:#00f600;stop-opacity:1;"
         offset="0"
         id="stop1119" />
      <stop
         style="stop-color:#00f600;stop-opacity:0;"
         offset="1"
         id="stop1121" />
    </linearGradient>
    <linearGradient
       inkscape:collect="always"
       id="linearGradient1111">
      <stop
         style="stop-color:#00f600;stop-opacity:1;"
         offset="0"
         id="stop1107" />
      <stop
         style="stop-color:#00f600;stop-opacity:0;"
         offset="1"
         id="stop1109" />
    </linearGradient>
    <linearGradient
       id="linearGradient849"
       osb:paint="solid">
      <stop
         style="stop-color:#00f600;stop-opacity:1;"
         offset="0"
         id="stop847" />
    </linearGradient>
    <linearGradient
       inkscape:collect="always"
       xlink:href="#linearGradient1111"
       id="linearGradient1115"
       x1="36.685001"
       y1="136.50465"
       x2="44.297661"
       y2="136.77193"
       gradientUnits="userSpaceOnUse" />
    <linearGradient
       inkscape:collect="always"
       xlink:href="#linearGradient1123"
       id="linearGradient1135"
       x1="2.6726942"
       y1="177.39688"
       x2="38.754082"
       y2="164.30067"
       gradientUnits="userSpaceOnUse"
       gradientTransform="translate(8.2423765,-10.166986)" />
    <linearGradient
       gradientTransform="translate(81.650842,1.7372562)"
       inkscape:collect="always"
       xlink:href="#linearGradient1123"
       id="linearGradient1115-2"
       x1="27.597837"
       y1="136.77193"
       x2="44.297661"
       y2="136.77193"
       gradientUnits="userSpaceOnUse" />
    <linearGradient
       inkscape:collect="always"
       xlink:href="#linearGradient1123"
       id="linearGradient1135-8"
       x1="32.226227"
       y1="125.17728"
       x2="32.606884"
       y2="176.05083"
       gradientUnits="userSpaceOnUse"
       gradientTransform="matrix(1.4558824,0,0,1.8965516,-172.30766,-159.30815)" />
    <linearGradient
       inkscape:collect="always"
       xlink:href="#linearGradient1123"
       id="linearGradient1378"
       gradientUnits="userSpaceOnUse"
       gradientTransform="matrix(1.4558824,0,0,1.8965516,-172.30766,-159.30815)"
       x1="32.226227"
       y1="125.17728"
       x2="32.606884"
       y2="176.05083" />
  </defs>
  <sodipodi:namedview
     id="base"
     pagecolor="#ffffff"
     bordercolor="#666666"
     borderopacity="1.0"
     inkscape:pageopacity="0.0"
     inkscape:pageshadow="2"
     inkscape:zoom="0.7"
     inkscape:cx="386.14408"
     inkscape:cy="76.20108"
     inkscape:document-units="mm"
     inkscape:current-layer="layer1"
     showgrid="false"
     inkscape:window-width="1848"
     inkscape:window-height="1016"
     inkscape:window-x="72"
     inkscape:window-y="27"
     inkscape:window-maximized="1" />
  <metadata
     id="metadata5">
    <rdf:RDF>
      <cc:Work
         rdf:about="">
        <dc:format>image/svg+xml</dc:format>
        <dc:type
           rdf:resource="http://purl.org/dc/dcmitype/StillImage" />
        <dc:title></dc:title>
      </cc:Work>
    </rdf:RDF>
  </metadata>
  <g
     inkscape:label="Layer 1"
     inkscape:groupmode="layer"
     id="layer1"
     transform="translate(0,-237.677)">
    <g
       id="g1392"
       transform="translate(-6.73051,131.98853)">
      <g
         transform="translate(-3.650027,-2.3520459)"
         id="g1357">
        <rect
           style="opacity:0.653;fill:url(#linearGradient1115);fill-opacity:1;stroke:none;stroke-width:2;stroke-linejoin:round;stroke-miterlimit:4;stroke-dasharray:none;stroke-dashoffset:0;stroke-opacity:1"
           id="rect1105"
           width="14.699824"
           height="57.462948"
           x="28.597837"
           y="108.04044"
           ry="7.3499122" />
        <ellipse
           style="opacity:0.653;fill:url(#linearGradient1135);fill-opacity:1;stroke:none;stroke-width:2;stroke-linejoin:round;stroke-miterlimit:4;stroke-dasharray:none;stroke-dashoffset:0;stroke-opacity:1"
           id="path1117"
           cx="28.822134"
           cy="155.73729"
           rx="18.441597"
           ry="11.626225" />
      </g>
      <g
         transform="translate(9.4063218,-3.1592277)"
         id="g1353">
        <rect
           style="opacity:0.653;fill:url(#linearGradient1115-2);fill-opacity:1;stroke:none;stroke-width:2;stroke-linejoin:round;stroke-miterlimit:4;stroke-dasharray:none;stroke-dashoffset:0;stroke-opacity:1"
           id="rect1105-2"
           width="14.699824"
           height="57.462948"
           x="110.24868"
           y="109.77769"
           ry="7.3499122" />
        <path
           style="opacity:0.653;fill:url(#linearGradient1378);fill-opacity:1;stroke:none;stroke-width:3.32334566;stroke-linejoin:round;stroke-miterlimit:4;stroke-dasharray:none;stroke-dashoffset:0;stroke-opacity:1"
           id="path1117-0"
           sodipodi:type="arc"
           sodipodi:cx="-138.45486"
           sodipodi:cy="128.61096"
           sodipodi:rx="26.459684"
           sodipodi:ry="18.307964"
           sodipodi:start="0"
           sodipodi:end="3.1548279"
           d="m -111.99518,128.61096 a 26.459684,18.307964 0 0 1 -13.33106,15.89539 26.459684,18.307964 0 0 1 -26.56014,-0.12161 26.459684,18.307964 0 0 1 -13.02585,-16.01608 l 26.45737,0.2423 z"
           transform="rotate(-90)" />
      </g>
      <g
         transform="matrix(4.5068468,0,0,4.5068468,-325.47503,-296.71246)"
         id="g1301">
        <g
           style="font-style:normal;font-variant:normal;font-weight:normal;font-stretch:normal;letter-spacing:normal;word-spacing:normal;text-anchor:start;fill:none;fill-opacity:1;fill-rule:evenodd;stroke:#000000;stroke-linecap:butt;stroke-linejoin:miter;stroke-miterlimit:10.43299961;stroke-dasharray:none;stroke-dashoffset:0;stroke-opacity:1"
           id="g1299"
           transform="matrix(0.3,0,0,-0.3,-52.5,222.75)"
           xml:space="preserve"
           stroke-miterlimit="10.433"
           font-style="normal"
           font-variant="normal"
           font-weight="normal"
           font-stretch="normal"
           font-size-adjust="none"
           letter-spacing="normal"
           word-spacing="normal"><path
             style="fill:#000000;stroke-width:0"
             inkscape:connector-curvature="0"
             d="m 485.16,414.42 0.02,-0.29 0.03,-0.29 0.03,-0.28 0.03,-0.28 0.03,-0.27 0.03,-0.27 0.04,-0.25 0.03,-0.26 0.04,-0.25 0.03,-0.24 0.04,-0.24 0.04,-0.23 0.04,-0.22 0.04,-0.22 0.04,-0.21 0.04,-0.21 0.04,-0.2 0.04,-0.19 0.04,-0.19 0.03,-0.18 0.04,-0.17 0.04,-0.17 0.04,-0.16 0.03,-0.15 0.04,-0.15 0.03,-0.13 0.03,-0.13 0.04,-0.13 0.03,-0.11 0.02,-0.11 0.03,-0.1 0.02,-0.1 c 0.55,-2.25 0.8,-3.34 2.94,-3.34 2.25,0 6.08,2.25 6.08,3.25 0,0.25 -0.19,0.34 -0.44,0.34 -0.65,0 -1.7,-0.54 -1.84,-0.65 -0.36,-0.19 -0.45,-0.19 -0.55,-0.19 -1.4,0 -1.7,1.34 -2.3,4.33 -0.34,1.64 -0.79,3.64 -1.18,10.47 -0.36,5.07 -0.57,10.15 -0.57,15.23 0,1.2 0.07,2.5 0.07,3.69 0,0.79 0,1 -0.55,1 -0.7,0 -2.75,-0.85 -3.64,-2.19 l -0.36,-0.55 c -3.92,-8.42 -7.61,-14.45 -10.2,-18.48 -2.94,-4.53 -8.13,-12.66 -10.82,-12.66 -1.84,0 -3.39,1.19 -3.84,2.99 -0.05,0.11 -0.14,0.4 -0.34,0.4 -0.75,0 -1.85,-2.39 -1.85,-3.79 0,-1.99 2.14,-4.18 4.49,-4.18 3.44,0 9.17,8.97 10.26,10.71 l 1.35,1.94 c 3.48,5.39 6.37,10.56 6.67,11.12 2.5,4.42 3.84,7.31 4.48,8.56 h 0.05 v -2.89 c 0,-2.89 0.11,-5.78 0.25,-8.67 0.06,-1 0.25,-4.73 0.5,-7.33 h -9.11 c -0.8,0 -1.55,0 -2.84,-0.79 l -1.35,-1.94 z"
             id="path1297" /></g>      </g>
      <g
         transform="matrix(4.7868912,0,0,4.7868912,-229.66437,-323.16483)"
         id="g1344">
        <g
           style="font-style:normal;font-variant:normal;font-weight:normal;font-stretch:normal;letter-spacing:normal;word-spacing:normal;text-anchor:start;fill:none;fill-opacity:1;fill-rule:evenodd;stroke:#000000;stroke-linecap:butt;stroke-linejoin:miter;stroke-miterlimit:10.43299961;stroke-dasharray:none;stroke-dashoffset:0;stroke-opacity:1"
           id="g1342"
           transform="matrix(0.3,0,0,-0.3,-52.5,222.75)"
           xml:space="preserve"
           stroke-miterlimit="10.433"
           font-style="normal"
           font-variant="normal"
           font-weight="normal"
           font-stretch="normal"
           font-size-adjust="none"
           letter-spacing="normal"
           word-spacing="normal"><path
             style="fill:#000000;stroke-width:0"
             inkscape:connector-curvature="0"
             d="m 467.43,424.28 -0.46,-0.26 -0.45,-0.25 -0.43,-0.26 -0.42,-0.25 -0.41,-0.26 -0.4,-0.26 -0.38,-0.26 -0.37,-0.26 -0.7,-0.52 -0.66,-0.52 -0.61,-0.52 -0.56,-0.51 -0.53,-0.52 -0.48,-0.51 -0.44,-0.5 -0.41,-0.5 -0.37,-0.49 -0.34,-0.48 -0.31,-0.48 -0.27,-0.46 -0.25,-0.45 -0.21,-0.43 -0.19,-0.42 -0.17,-0.41 -0.15,-0.39 -0.12,-0.37 -0.1,-0.35 -0.09,-0.33 -0.07,-0.31 -0.05,-0.29 -0.05,-0.26 -0.03,-0.24 -0.02,-0.21 -0.01,-0.19 -0.01,-0.16 v -0.12 c 0,-3.78 3.69,-6.17 8.42,-6.17 8.33,0 15,7.87 15,8.92 0,0.29 -0.25,0.34 -0.5,0.34 -0.59,0 -2.48,-0.66 -3.64,-2.19 -1.05,-1.45 -3.14,-4.34 -7.56,-4.34 -3.55,0 -7.49,1.84 -7.49,5.58 0,2.45 2.8,9.81 10.68,10.12 2.34,0.1 4.07,1.85 4.07,2.39 0,0.3 -0.25,0.35 -0.5,0.35 -7.01,0.29 -8.42,3.73 -8.42,5.73 0,1.14 0.75,6.58 7.74,6.58 0.93,0 4.73,-0.16 4.73,-2.75 0,-0.8 -0.4,-1.48 -0.61,-1.8 -0.09,-0.14 -0.25,-0.39 -0.25,-0.54 0,-0.35 0.36,-0.35 0.5,-0.35 1.5,0 4.6,1.94 4.6,4.78 0,2.94 -3.44,3.39 -5.69,3.39 -6.78,0 -15.25,-5.37 -15.25,-11.45 0,-2.95 2.25,-4.73 4.69,-5.59 z"
             id="path1340" /></g>      </g>
    </g>
  </g>
</svg>
